<?xml version="1.0" encoding="UTF-8"?>
<svg xmlns="http://www.w3.org/2000/svg" xmlns:xlink="http://www.w3.org/1999/xlink" width="16px" height="18px" viewBox="0 0 16 18" version="1.1">
<g id="surface1">
<path style=" stroke:none;fill-rule:nonzero;fill:rgb(0%,0%,0%);fill-opacity:1;" d="M 14.753906 7.820312 L 15.546875 8.601562 C 15.882812 8.933594 15.882812 9.46875 15.546875 9.792969 L 8.605469 16.628906 C 8.269531 16.960938 7.730469 16.960938 7.394531 16.628906 L 0.453125 9.792969 C 0.117188 9.464844 0.117188 8.929688 0.453125 8.601562 L 1.246094 7.824219 C 1.585938 7.488281 2.140625 7.496094 2.472656 7.835938 L 6.570312 12.074219 L 6.570312 1.96875 C 6.570312 1.5 6.953125 1.125 7.429688 1.125 L 8.570312 1.125 C 9.046875 1.125 9.429688 1.5 9.429688 1.96875 L 9.429688 12.074219 L 13.527344 7.835938 C 13.859375 7.492188 14.414062 7.484375 14.753906 7.820312 Z M 14.753906 7.820312 "/>
</g>
</svg>
