<svg xmlns="http://www.w3.org/2000/svg" xmlns:xlink="http://www.w3.org/1999/xlink" width="16px" height="18px" viewBox="0 0 16 18" version="1.1">
<g id="surface1">
<path fill="fff" d="M 1.246094 10.179688 L 0.453125 9.398438 C 0.117188 9.066406 0.117188 8.53125 0.453125 8.207031 L 7.394531 1.371094 C 7.730469 1.039062 8.269531 1.039062 8.605469 1.371094 L 15.542969 8.203125 C 15.878906 8.53125 15.878906 9.066406 15.542969 9.394531 L 14.75 10.175781 C 14.410156 10.507812 13.855469 10.5 13.523438 10.160156 L 9.429688 5.925781 L 9.429688 16.03125 C 9.429688 16.5 9.046875 16.875 8.570312 16.875 L 7.429688 16.875 C 6.953125 16.875 6.570312 16.5 6.570312 16.03125 L 6.570312 5.925781 L 2.472656 10.164062 C 2.140625 10.507812 1.585938 10.515625 1.246094 10.179688 Z M 1.246094 10.179688 "/>
</g>
</svg>
